<svg id="图层_1" data-name="图层 1" xmlns="http://www.w3.org/2000/svg" viewBox="0 0 59.53 59.53"><defs><style>.cls-1{fill:#102f8b;}</style></defs><title>未标题-2</title><path class="cls-1" d="M45.84,33.81a18.79,18.79,0,0,1-.51,5.76A20.19,20.19,0,0,1,43,45a21.28,21.28,0,0,1-4,4.54,20.65,20.65,0,0,1-5.28,3.17,22.52,22.52,0,0,1-6.08,1.47,22.51,22.51,0,0,1-6.28-.45,21.91,21.91,0,0,1-5.91-2.32,22.74,22.74,0,0,1-5-4,23.11,23.11,0,0,1-3.56-5.3A22.75,22.75,0,0,1,5.09,36a23,23,0,0,1,.1-6.36,22.58,22.58,0,0,1,2-6,21.56,21.56,0,0,1,3.68-5.08,22.9,22.9,0,0,1,5-3.72,22.15,22.15,0,0,1,5.78-2,20.85,20.85,0,0,1,6-.14l-.8,1.37c-.65-1.24-1.26-2.52-1.89-3.78s-1.23-2.54-1.82-3.83c.9,1.09,1.79,2.19,2.65,3.31s1.74,2.22,2.58,3.35l1,1.31-1.77.06A18.56,18.56,0,0,0,11.17,25.53a19.14,19.14,0,0,0-1.3,4.81A19.52,19.52,0,0,0,10,35.29,18.93,18.93,0,0,0,11.41,40a20.07,20.07,0,0,0,2.72,4.11,20.29,20.29,0,0,0,3.78,3.19,19.37,19.37,0,0,0,4.53,2,19.79,19.79,0,0,0,5,.67,18.29,18.29,0,0,0,5-.72,22.43,22.43,0,0,0,4.71-2.15,21.79,21.79,0,0,0,4-3.45,21.07,21.07,0,0,0,3-4.52A23.71,23.71,0,0,0,45.84,33.81Z"/><path class="cls-1" d="M52.62,7.13c-2.43,3.12-4.94,6.16-7.41,9.24s-5,6.09-7.57,9.1-4.82,6.27-7.71,9c-1.41,1.37-2.9,2.68-4.43,3.94a42.58,42.58,0,0,1-4.89,3.53l-.3-.27a40.87,40.87,0,0,1,3.12-5.16c1.13-1.64,2.31-3.23,3.56-4.75,2.45-3.1,5.5-5.65,8.3-8.43S40.9,17.75,43.74,15s5.69-5.47,8.59-8.15Z"/></svg>